<svg width="63" height="52" viewBox="0 0 63 52" fill="none" xmlns="http://www.w3.org/2000/svg">
<path d="M62.0001 24.9538V43.462L19.2292 50.5063C18.246 50.67 17.3283 49.9061 17.1859 48.8039L12.9682 16.6737C12.9569 16.5864 12.9502 16.5018 12.9502 16.4172V16.4009C12.9366 15.4051 13.583 14.532 14.4871 14.3847L57.8548 7.24224C58.838 7.07855 59.7557 7.84245 59.8981 8.94192L60.6349 14.5484L62.0001 24.9538Z" fill="#FECF8D" stroke="#936327" stroke-miterlimit="10"/>
<path d="M61.9996 16.5072V48.9838C61.9996 50.0969 61.1927 51 60.1981 51H14.7465C13.7497 51 12.9451 50.0969 12.9451 48.9838V16.5072C12.9451 16.4772 12.9451 16.4499 12.9451 16.4199V16.4035C12.9948 15.3368 13.7791 14.4883 14.7442 14.4883H37.4701H60.1959C60.3451 14.4883 60.492 14.5074 60.6321 14.5483C61.4164 14.7666 61.9973 15.5577 61.9973 16.5044L61.9996 16.5072Z" fill="#9BB7DF" stroke="#936327" stroke-miterlimit="10"/>
<path d="M18.2437 16.9874H15.3483C15.2672 16.9874 15.2014 17.0668 15.2014 17.1647V17.4293C15.2014 17.5273 15.2672 17.6067 15.3483 17.6067H18.2437C18.3249 17.6067 18.3906 17.5273 18.3906 17.4293V17.1647C18.3906 17.0668 18.3249 16.9874 18.2437 16.9874Z" fill="#68471B"/>
<path d="M23.2413 16.9874H20.3459C20.2648 16.9874 20.199 17.0668 20.199 17.1647V17.4293C20.199 17.5273 20.2648 17.6067 20.3459 17.6067H23.2413C23.3224 17.6067 23.3882 17.5273 23.3882 17.4293V17.1647C23.3882 17.0668 23.3224 16.9874 23.2413 16.9874Z" fill="#68471B"/>
<path d="M28.9596 16.9874H26.0642C25.983 16.9874 25.9172 17.0668 25.9172 17.1647V17.4293C25.9172 17.5273 25.983 17.6067 26.0642 17.6067H28.9596C29.0407 17.6067 29.1065 17.5273 29.1065 17.4293V17.1647C29.1065 17.0668 29.0407 16.9874 28.9596 16.9874Z" fill="#68471B"/>
<path d="M33.9547 16.9874H31.0593C30.9781 16.9874 30.9124 17.0668 30.9124 17.1647V17.4293C30.9124 17.5273 30.9781 17.6067 31.0593 17.6067H33.9547C34.0358 17.6067 34.1016 17.5273 34.1016 17.4293V17.1647C34.1016 17.0668 34.0358 16.9874 33.9547 16.9874Z" fill="#68471B"/>
<path d="M38.9071 16.9709H36.0117C35.9305 16.9709 35.8647 17.0503 35.8647 17.1483V17.4129C35.8647 17.5109 35.9305 17.5903 36.0117 17.5903H38.9071C38.9882 17.5903 39.054 17.5109 39.054 17.4129V17.1483C39.054 17.0503 38.9882 16.9709 38.9071 16.9709Z" fill="#68471B"/>
<path d="M43.9017 16.9709H41.0063C40.9252 16.9709 40.8594 17.0503 40.8594 17.1483V17.4129C40.8594 17.5109 40.9252 17.5903 41.0063 17.5903H43.9017C43.9828 17.5903 44.0486 17.5109 44.0486 17.4129V17.1483C44.0486 17.0503 43.9828 16.9709 43.9017 16.9709Z" fill="#68471B"/>
<path d="M49.3741 16.9709H46.4787C46.3976 16.9709 46.3318 17.0503 46.3318 17.1483V17.4129C46.3318 17.5109 46.3976 17.5903 46.4787 17.5903H49.3741C49.4552 17.5903 49.521 17.5109 49.521 17.4129V17.1483C49.521 17.0503 49.4552 16.9709 49.3741 16.9709Z" fill="#68471B"/>
<path d="M54.3719 16.9709H51.4765C51.3954 16.9709 51.3296 17.0503 51.3296 17.1483V17.4129C51.3296 17.5109 51.3954 17.5903 51.4765 17.5903H54.3719C54.453 17.5903 54.5188 17.5109 54.5188 17.4129V17.1483C54.5188 17.0503 54.453 16.9709 54.3719 16.9709Z" fill="#68471B"/>
<path d="M59.5997 16.9874H56.7043C56.6231 16.9874 56.5574 17.0668 56.5574 17.1647V17.4293C56.5574 17.5273 56.6231 17.6067 56.7043 17.6067H59.5997C59.6808 17.6067 59.7466 17.5273 59.7466 17.4293V17.1647C59.7466 17.0668 59.6808 16.9874 59.5997 16.9874Z" fill="#68471B"/>
<path d="M18.2437 48.7983H15.3483C15.2672 48.7983 15.2014 48.8777 15.2014 48.9757V49.2403C15.2014 49.3383 15.2672 49.4176 15.3483 49.4176H18.2437C18.3249 49.4176 18.3906 49.3383 18.3906 49.2403V48.9757C18.3906 48.8777 18.3249 48.7983 18.2437 48.7983Z" fill="#68471B"/>
<path d="M23.2413 48.7983H20.3459C20.2648 48.7983 20.199 48.8777 20.199 48.9757V49.2403C20.199 49.3383 20.2648 49.4176 20.3459 49.4176H23.2413C23.3224 49.4176 23.3882 49.3383 23.3882 49.2403V48.9757C23.3882 48.8777 23.3224 48.7983 23.2413 48.7983Z" fill="#68471B"/>
<path d="M28.9596 48.7983H26.0642C25.983 48.7983 25.9172 48.8777 25.9172 48.9757V49.2403C25.9172 49.3383 25.983 49.4176 26.0642 49.4176H28.9596C29.0407 49.4176 29.1065 49.3383 29.1065 49.2403V48.9757C29.1065 48.8777 29.0407 48.7983 28.9596 48.7983Z" fill="#68471B"/>
<path d="M33.9547 48.7983H31.0593C30.9781 48.7983 30.9124 48.8777 30.9124 48.9757V49.2403C30.9124 49.3383 30.9781 49.4176 31.0593 49.4176H33.9547C34.0358 49.4176 34.1016 49.3383 34.1016 49.2403V48.9757C34.1016 48.8777 34.0358 48.7983 33.9547 48.7983Z" fill="#68471B"/>
<path d="M38.9071 48.782H36.0117C35.9305 48.782 35.8647 48.8614 35.8647 48.9593V49.224C35.8647 49.3219 35.9305 49.4013 36.0117 49.4013H38.9071C38.9882 49.4013 39.054 49.3219 39.054 49.224V48.9593C39.054 48.8614 38.9882 48.782 38.9071 48.782Z" fill="#68471B"/>
<path d="M43.9017 48.782H41.0063C40.9252 48.782 40.8594 48.8614 40.8594 48.9593V49.224C40.8594 49.3219 40.9252 49.4013 41.0063 49.4013H43.9017C43.9828 49.4013 44.0486 49.3219 44.0486 49.224V48.9593C44.0486 48.8614 43.9828 48.782 43.9017 48.782Z" fill="#68471B"/>
<path d="M49.3741 48.782H46.4787C46.3976 48.782 46.3318 48.8614 46.3318 48.9593V49.224C46.3318 49.3219 46.3976 49.4013 46.4787 49.4013H49.3741C49.4552 49.4013 49.521 49.3219 49.521 49.224V48.9593C49.521 48.8614 49.4552 48.782 49.3741 48.782Z" fill="#68471B"/>
<path d="M54.3719 48.782H51.4765C51.3954 48.782 51.3296 48.8614 51.3296 48.9593V49.224C51.3296 49.3219 51.3954 49.4013 51.4765 49.4013H54.3719C54.453 49.4013 54.5188 49.3219 54.5188 49.224V48.9593C54.5188 48.8614 54.453 48.782 54.3719 48.782Z" fill="#68471B"/>
<path d="M59.5997 48.7983H56.7043C56.6231 48.7983 56.5574 48.8777 56.5574 48.9757V49.2403C56.5574 49.3383 56.6231 49.4176 56.7043 49.4176H59.5997C59.6808 49.4176 59.7466 49.3383 59.7466 49.2403V48.9757C59.7466 48.8777 59.6808 48.7983 59.5997 48.7983Z" fill="#68471B"/>
<path d="M50.9334 30.7566H61.9997V36.6905H50.9334C50.1536 36.6905 49.5208 35.9266 49.5208 34.9854V32.459C49.5208 31.5178 50.1536 30.7539 50.9334 30.7539V30.7566Z" fill="#FECF8D" stroke="#936327" stroke-miterlimit="10"/>
<path d="M52.9226 35.0372C53.5705 35.0372 54.0957 34.4484 54.0957 33.7222C54.0957 32.9959 53.5705 32.4072 52.9226 32.4072C52.2747 32.4072 51.7495 32.9959 51.7495 33.7222C51.7495 34.4484 52.2747 35.0372 52.9226 35.0372Z" fill="white" stroke="#936327" stroke-miterlimit="10"/>
<path d="M15.2012 34.2133C23.0444 34.2133 29.4025 26.7782 29.4025 17.6066C29.4025 8.43505 23.0444 1 15.2012 1C7.35811 1 1 8.43505 1 17.6066C1 26.7782 7.35811 34.2133 15.2012 34.2133Z" fill="#F1F2F2" stroke="#9BB7DF" stroke-width="2" stroke-miterlimit="10"/>
<path opacity="0.1" d="M10.9162 15.8169C10.9072 15.6614 10.7965 13.4133 12.3086 12.0356C13.7755 10.6988 16.2821 10.6251 17.7739 11.9483C18.9153 12.9605 19.2792 14.6574 19.1346 15.9288C18.8837 18.1468 17.2902 18.7334 17.2156 21.3579C17.1953 22.0891 17.3083 22.4819 17.0122 22.9048C16.2527 23.9879 13.7597 23.9279 13.0386 22.8039C12.781 22.4028 12.851 22.0291 12.8443 21.4725C12.8104 18.7825 11.0632 18.0868 10.9162 15.8169Z" fill="#A7A9AC" stroke="#231F20" stroke-width="0.2" stroke-miterlimit="10"/>
<path opacity="0.1" d="M12.6514 21.3034H17.4206V23.0004C17.4206 23.5324 17.0635 23.9661 16.6205 23.9661H13.4493C13.0086 23.9661 12.6492 23.5351 12.6492 23.0004V21.3034H12.6514Z" fill="#A7A9AC"/>
<path opacity="0.1" d="M13.7642 23.8842H16.3092C16.3092 24.2689 16.0515 24.5799 15.7328 24.5799H14.3405C14.0218 24.5799 13.7642 24.2689 13.7642 23.8842Z" fill="#A7A9AC"/>
<path opacity="0.1" d="M17.4208 22.973H12.6516V23.2872H17.4208V22.973Z" fill="#A7A9AC"/>
<path opacity="0.1" d="M17.4208 21.9773H12.6516V22.2916H17.4208V21.9773Z" fill="#A7A9AC"/>
<path d="M11.0041 15.8169C10.9951 15.6614 10.8843 13.4133 12.3965 12.0356C13.8634 10.6988 16.37 10.6251 17.8618 11.9483C19.0032 12.9605 19.3671 14.6574 19.2225 15.9288C18.9716 18.1468 17.3781 18.7334 17.3035 21.3579C17.2832 22.0891 17.3962 22.4819 17.1001 22.9048C16.3406 23.9879 13.8476 23.9279 13.1265 22.8039C12.8689 22.4028 12.9389 22.0291 12.9321 21.4725C12.8982 18.7825 11.1511 18.0868 11.0041 15.8169Z" fill="url(#paint0_linear_354_129)" stroke="#231F20" stroke-width="0.4" stroke-miterlimit="10"/>
<path d="M12.7401 21.3034H17.5092V23.0004C17.5092 23.5324 17.1521 23.9661 16.7091 23.9661H13.5379C13.0972 23.9661 12.7378 23.5351 12.7378 23.0004V21.3034H12.7401Z" fill="#E1E1E1"/>
<path d="M13.8547 23.9662H16.3998C16.3998 24.3509 16.1421 24.6619 15.8234 24.6619H14.4311C14.1124 24.6619 13.8547 24.3509 13.8547 23.9662Z" fill="#B0AFB4"/>
<path d="M17.5089 22.973H12.7397V23.4348H17.5089V22.973Z" fill="#B0AFB4"/>
<path d="M17.5089 21.9773H12.7397V22.4555H17.5089V21.9773Z" fill="#B0AFB4"/>
<path d="M16.8987 12.0083C17.0885 11.8801 17.9135 12.4585 18.4424 13.4516C18.7634 14.0545 18.9442 14.7529 18.8244 14.8784C18.795 14.9084 18.7634 14.9084 18.7634 14.9084C18.6662 14.9084 18.5893 14.6793 18.5283 14.4992C18.5012 14.4146 18.465 14.2973 18.4356 14.1473C18.3859 14.0136 18.3113 13.8308 18.1938 13.6316C18.0876 13.4488 17.9904 13.3261 17.8796 13.1842C17.7937 13.0751 17.6717 12.9223 17.4954 12.7504C17.3033 12.5649 17.1156 12.4067 17.1156 12.4067C16.9484 12.2675 16.8263 12.1775 16.8399 12.0875C16.8467 12.0438 16.8851 12.0193 16.8964 12.0111L16.8987 12.0083Z" fill="white"/>
<path d="M10.9402 9.11372L9.99544 7.15213C9.94798 7.05391 9.9751 6.92842 10.0587 6.87112C10.1446 6.8111 10.2531 6.84657 10.3028 6.95024L11.2454 8.90364C11.2454 8.90364 11.2454 8.91183 11.2431 8.91456L10.9515 9.11645C10.9515 9.11645 10.9448 9.11645 10.9425 9.11372H10.9402Z" fill="url(#paint1_linear_354_129)" stroke="#231F20" stroke-width="0.4" stroke-miterlimit="10"/>
<path d="M6.66249 15.3504H8.56338C8.56338 15.3504 8.57016 15.3531 8.57016 15.3586V15.7631C8.57016 15.7631 8.5679 15.7713 8.56338 15.7713H6.65797C6.57208 15.7713 6.49976 15.6865 6.49976 15.58V15.5472C6.49976 15.4379 6.57208 15.3504 6.66249 15.3504Z" fill="url(#paint2_linear_354_129)" stroke="#231F20" stroke-width="0.4" stroke-miterlimit="10"/>
<path d="M15.0361 5.45795V7.73055C15.0361 7.73055 15.0339 7.73874 15.0294 7.73874H14.6903C14.6903 7.73874 14.6835 7.73601 14.6835 7.73055V5.44976C14.6835 5.34336 14.7536 5.25879 14.8417 5.25879H14.8711C14.9615 5.25879 15.0339 5.34609 15.0339 5.45522L15.0361 5.45795Z" fill="url(#paint3_linear_354_129)" stroke="#231F20" stroke-width="0.4" stroke-miterlimit="10"/>
<path d="M18.5485 8.68264L19.3803 6.65012C19.4209 6.54918 19.5249 6.50553 19.6108 6.55464C19.699 6.60647 19.7351 6.7347 19.6922 6.8411L18.8627 8.86816C18.8627 8.86816 18.8581 8.87362 18.8536 8.87089L18.5507 8.69356C18.5507 8.69356 18.5462 8.6881 18.5485 8.68264Z" fill="url(#paint4_linear_354_129)" stroke="#231F20" stroke-width="0.4" stroke-miterlimit="10"/>
<path d="M8.81641 12.333L7.11895 11.3372C7.03306 11.2881 6.99915 11.1626 7.03984 11.0616C7.08278 10.9552 7.18902 10.9116 7.27717 10.9634L8.9701 11.9565C8.9701 11.9565 8.97462 11.9619 8.97236 11.9674L8.82319 12.3302C8.82319 12.3302 8.81867 12.3357 8.81415 12.333H8.81641Z" fill="url(#paint5_linear_354_129)" stroke="#231F20" stroke-width="0.4" stroke-miterlimit="10"/>
<path d="M9.28199 19.0199L7.6433 20.1521C7.56193 20.2094 7.45569 20.1739 7.40823 20.0757C7.3585 19.9748 7.38789 19.8438 7.47378 19.7838L9.10569 18.6543C9.10569 18.6543 9.11247 18.6543 9.11473 18.657L9.28425 19.0062C9.28425 19.0062 9.28425 19.0144 9.28199 19.0172V19.0199Z" fill="url(#paint6_linear_354_129)" stroke="#231F20" stroke-width="0.4" stroke-miterlimit="10"/>
<path d="M21.6386 11.8639L23.3768 10.9745C23.4649 10.9308 23.5644 10.9772 23.6028 11.0836C23.6412 11.1927 23.6005 11.3182 23.5079 11.3646L21.7742 12.2513C21.7742 12.2513 21.7675 12.2513 21.7652 12.2485L21.6318 11.8775C21.6318 11.8775 21.6318 11.8693 21.6364 11.8666L21.6386 11.8639Z" fill="url(#paint7_linear_354_129)" stroke="#231F20" stroke-width="0.4" stroke-miterlimit="10"/>
<path d="M23.7428 15.7706H21.8419C21.8419 15.7706 21.8351 15.7678 21.8351 15.7624V15.3579C21.8351 15.3579 21.8374 15.3497 21.8419 15.3497H23.7473C23.8332 15.3497 23.9055 15.4344 23.9055 15.541V15.5738C23.9055 15.6831 23.8332 15.7706 23.7428 15.7706Z" fill="url(#paint8_linear_354_129)" stroke="#231F20" stroke-width="0.4" stroke-miterlimit="10"/>
<path d="M21.3691 18.7525L23.0598 19.7647C23.1457 19.8165 23.1796 19.9393 23.1366 20.0403C23.0937 20.1467 22.9852 20.1876 22.8971 20.1357L21.2109 19.1263C21.2109 19.1263 21.2064 19.1208 21.2086 19.1154L21.3601 18.7553C21.3601 18.7553 21.3646 18.7498 21.3691 18.7525Z" fill="url(#paint9_linear_354_129)" stroke="#231F20" stroke-width="0.4" stroke-miterlimit="10"/>
<defs>
<linearGradient id="paint0_linear_354_129" x1="11.2912" y1="17.3038" x2="18.6553" y2="17.3487" gradientUnits="userSpaceOnUse">
<stop offset="0.65" stop-color="#FFE900"/>
<stop offset="1" stop-color="#FFDE17"/>
</linearGradient>
<linearGradient id="paint1_linear_354_129" x1="9.97058" y1="7.98151" x2="11.2431" y2="7.98151" gradientUnits="userSpaceOnUse">
<stop offset="0.65" stop-color="#FFE900"/>
<stop offset="1" stop-color="#FFDE17"/>
</linearGradient>
<linearGradient id="paint2_linear_354_129" x1="6.49976" y1="15.5608" x2="8.57016" y2="15.5608" gradientUnits="userSpaceOnUse">
<stop offset="0.65" stop-color="#FFE900"/>
<stop offset="1" stop-color="#FFDE17"/>
</linearGradient>
<linearGradient id="paint3_linear_354_129" x1="14.6858" y1="6.4974" x2="15.0361" y2="6.4974" gradientUnits="userSpaceOnUse">
<stop offset="0.65" stop-color="#FFE900"/>
<stop offset="1" stop-color="#FFDE17"/>
</linearGradient>
<linearGradient id="paint4_linear_354_129" x1="18.5485" y1="7.70321" x2="19.7103" y2="7.70321" gradientUnits="userSpaceOnUse">
<stop offset="0.65" stop-color="#FFE900"/>
<stop offset="1" stop-color="#FFDE17"/>
</linearGradient>
<linearGradient id="paint5_linear_354_129" x1="7.02176" y1="11.64" x2="8.97462" y2="11.64" gradientUnits="userSpaceOnUse">
<stop offset="0.65" stop-color="#FFE900"/>
<stop offset="1" stop-color="#FFDE17"/>
</linearGradient>
<linearGradient id="paint6_linear_354_129" x1="7.38563" y1="19.4182" x2="9.28425" y2="19.4182" gradientUnits="userSpaceOnUse">
<stop offset="0.65" stop-color="#FFE900"/>
<stop offset="1" stop-color="#FFDE17"/>
</linearGradient>
<linearGradient id="paint7_linear_354_129" x1="21.6341" y1="11.6047" x2="23.6186" y2="11.6047" gradientUnits="userSpaceOnUse">
<stop offset="0.65" stop-color="#FFE900"/>
<stop offset="1" stop-color="#FFDE17"/>
</linearGradient>
<linearGradient id="paint8_linear_354_129" x1="21.8351" y1="15.5601" x2="23.9055" y2="15.5601" gradientUnits="userSpaceOnUse">
<stop offset="0.65" stop-color="#FFE900"/>
<stop offset="1" stop-color="#FFDE17"/>
</linearGradient>
<linearGradient id="paint9_linear_354_129" x1="21.2086" y1="19.4537" x2="23.157" y2="19.4537" gradientUnits="userSpaceOnUse">
<stop offset="0.65" stop-color="#FFE900"/>
<stop offset="1" stop-color="#FFDE17"/>
</linearGradient>
</defs>
</svg>
